<svg width="33.000000" height="28.000000" viewBox="0 0 33 28" fill="none" xmlns="http://www.w3.org/2000/svg" xmlns:xlink="http://www.w3.org/1999/xlink">
	<desc>
			Created with Pixso.
	</desc>
	<defs/>
	<path id="Vector" d="M31.85 8.76L7.73 -0.18C7.42 -0.29 7.07 -0.13 6.96 0.18C6.96 0.18 6.96 0.18 6.96 0.18L4.29 7.45C4.18 7.75 4.33 8.1 4.64 8.21L4.64 8.21L7.44 9.24L6.82 10.92C6.71 11.22 6.87 11.57 7.18 11.68L12.77 13.73L12.36 14.85C11.99 15.85 12.33 16.98 13.21 17.6L13.21 20.64L5.19 20.64C4.8 19.75 4.01 19.11 3.06 18.91L3.06 17.66C3.06 17.33 2.8 17.06 2.47 17.06L0.06 17.06C-0.26 17.06 -0.53 17.33 -0.53 17.66L-0.53 27.19C-0.53 27.52 -0.26 27.79 0.06 27.79L2.47 27.79C2.8 27.79 3.06 27.52 3.06 27.19L3.06 25.94C4.01 25.74 4.8 25.1 5.19 24.21L13.21 24.21L13.21 24.81C13.21 25.8 14.01 26.6 15 26.6C15.98 26.6 16.78 25.8 16.78 24.81L16.78 18.21C17.32 17.94 17.74 17.47 17.95 16.91L18.36 15.79L23.4 17.64C23.46 17.66 23.53 17.67 23.6 17.67C23.85 17.67 24.07 17.52 24.16 17.28L24.38 16.67C26.32 17.04 28.19 15.76 28.55 13.82C28.69 13.11 28.6 12.37 28.3 11.7L31.91 9.85C32.21 9.7 32.32 9.34 32.17 9.05C32.1 8.91 31.99 8.81 31.85 8.76L31.85 8.76ZM14.4 18.14L14.89 18.32C15.12 18.4 15.35 18.45 15.59 18.46L15.59 20.64L14.4 20.64L14.4 18.14ZM1.87 26.6L0.66 26.6L0.66 18.26L1.87 18.26L1.87 26.6ZM4.25 23.02C4.25 23.78 3.78 24.45 3.06 24.71L3.06 20.14C3.78 20.4 4.25 21.07 4.25 21.83L4.25 23.02ZM5.46 21.83L15.59 21.83L15.59 23.02L5.46 23.02L5.46 21.83ZM15 25.4C14.67 25.4 14.4 25.14 14.4 24.81L14.4 24.21L15.59 24.21L15.59 24.81C15.59 25.14 15.32 25.4 15 25.4ZM17.24 15.38L16.83 16.5C16.61 17.11 15.92 17.43 15.3 17.2L14.18 16.79C13.57 16.57 13.25 15.88 13.48 15.26C13.48 15.26 13.48 15.26 13.48 15.26L13.89 14.15L16.91 15.25L17.24 15.38ZM23.25 16.31L8.15 10.77L8.56 9.65L17.51 12.94C17.72 13.01 17.96 12.96 18.12 12.81L19.79 11.24L24.48 12.96L23.25 16.31ZM27.28 13.99C26.9 15 25.88 15.64 24.8 15.53L25.72 13.03L27.23 12.25C27.46 12.8 27.48 13.42 27.28 13.99ZM25.26 11.93C25.23 11.93 25.2 11.93 25.17 11.94L19.86 9.99C19.65 9.91 19.41 9.96 19.25 10.12L17.57 11.69L5.61 7.3L7.87 1.15L30.16 9.41L25.26 11.93Z" fill="#E3B873" fill-opacity="1.000000" fill-rule="nonzero"/>
	<path id="Vector 2" d="M11.12 7.7L10.6 9.12M13.41 8.54L12.89 9.96M15.64 9.36L15.11 10.78" stroke="#E3B873" stroke-opacity="1.000000" stroke-width="1.000000"/>
</svg>
