<svg width="33.000000" height="29.000000" viewBox="0 0 33 29" fill="none" xmlns="http://www.w3.org/2000/svg" xmlns:xlink="http://www.w3.org/1999/xlink">
	<desc>
			Created with Pixso.
	</desc>
	<defs/>
	<path id="Vector" d="M21.42 8.56L16.58 7.1C16.21 6.99 15.84 6.95 15.47 6.97L15.47 6.96L9.58 6.96L-0.87 3.49L-0.83 18.16L2.16 19.66L3.94 15.32L6.53 16.36L7.2 14.68L8.18 15.65L7.27 16.56C6.95 16.87 6.77 17.31 6.77 17.76C6.77 18.67 7.5 19.42 8.41 19.45C8.44 20.33 9.15 21.05 10.04 21.08C10.07 21.96 10.78 22.68 11.67 22.71C11.7 23.62 12.45 24.34 13.36 24.34C13.81 24.34 14.24 24.16 14.56 23.85L15.47 22.94L15.83 23.3C16.15 23.62 16.59 23.8 17.03 23.8C17.95 23.8 18.69 23.07 18.72 22.17C19.61 22.13 20.32 21.42 20.35 20.53C21.24 20.5 21.95 19.79 21.98 18.9C22.89 18.87 23.62 18.13 23.62 17.21C23.62 17.14 23.61 17.06 23.6 16.98L24.38 16.2L25.01 17.47L28.42 15.76L30.48 19.7L32.86 18.11L32.86 4.07L21.42 8.56ZM1.6 18.16L0.25 17.49L0.22 4.99L6.18 6.97L1.6 18.16ZM5.93 14.94L4.35 14.31L7.21 7.32L8.77 7.83L5.93 14.94ZM7.86 17.76C7.86 17.6 7.92 17.44 8.04 17.33L8.99 16.37C9.11 16.26 9.26 16.19 9.42 16.19C9.76 16.19 10.03 16.47 10.03 16.8C10.03 16.96 9.97 17.12 9.86 17.23L8.9 18.19C8.79 18.3 8.63 18.37 8.47 18.37C8.13 18.37 7.86 18.09 7.86 17.76ZM9.49 19.39C9.49 19.23 9.55 19.07 9.67 18.96L10.62 18C10.74 17.89 10.89 17.82 11.05 17.82C11.39 17.82 11.66 18.1 11.66 18.43C11.66 18.59 11.6 18.75 11.49 18.86L10.53 19.82C10.42 19.93 10.26 20 10.1 20C9.76 20 9.49 19.72 9.49 19.39ZM11.12 21.02C11.12 20.86 11.18 20.7 11.3 20.59L12.25 19.63C12.37 19.52 12.52 19.45 12.68 19.45C13.02 19.45 13.29 19.73 13.29 20.06C13.29 20.22 13.23 20.38 13.12 20.49L12.16 21.45C12.05 21.56 11.89 21.63 11.73 21.63C11.39 21.63 11.12 21.35 11.12 21.02ZM14.75 22.12L13.79 23.08C13.68 23.19 13.52 23.26 13.36 23.26C13.02 23.26 12.75 22.98 12.75 22.65C12.75 22.49 12.82 22.33 12.93 22.22L13.88 21.26C14 21.15 14.15 21.08 14.32 21.08C14.65 21.08 14.92 21.36 14.92 21.69C14.92 21.85 14.86 22.01 14.75 22.12ZM21.92 17.82C21.76 17.82 21.61 17.76 21.49 17.65L16.94 13.09L16.17 13.86L20.72 18.41C20.84 18.53 20.9 18.68 20.9 18.85C20.9 19.18 20.63 19.45 20.29 19.45C20.13 19.45 19.98 19.39 19.86 19.28L15.31 14.72L14.54 15.49L19.09 20.04C19.21 20.16 19.27 20.31 19.27 20.48C19.27 20.81 19 21.08 18.66 21.08C18.5 21.08 18.34 21.02 18.23 20.91L13.68 16.35L12.91 17.12L17.46 21.67C17.58 21.79 17.64 21.94 17.64 22.11C17.64 22.44 17.37 22.71 17.03 22.71C16.87 22.71 16.71 22.65 16.6 22.54L15.99 21.92C16 21.85 16.01 21.77 16.01 21.69C16.01 20.78 15.28 20.04 14.37 20C14.34 19.12 13.63 18.4 12.74 18.37C12.71 17.49 12 16.77 11.11 16.74C11.08 15.84 10.34 15.11 9.42 15.11C9.35 15.11 9.27 15.12 9.19 15.13L7.64 13.58L9.86 8.04L13.07 8.04L11.07 10.04C10.75 10.36 10.58 10.78 10.58 11.24C10.58 12.17 11.34 12.93 12.27 12.93C12.72 12.93 13.16 12.75 13.47 12.44L14.91 11C15.21 10.7 15.73 10.69 16.03 10.97L17.3 12.14C17.72 12.52 18.19 12.85 18.7 13.1L22.35 16.78C22.47 16.9 22.53 17.05 22.53 17.21C22.53 17.55 22.26 17.82 21.92 17.82ZM23.08 15.97L20.84 13.72C21.04 13.74 21.24 13.75 21.45 13.75L21.45 12.66C20.18 12.66 18.97 12.19 18.04 11.34L16.77 10.17C16.05 9.51 14.83 9.54 14.14 10.23L12.7 11.67C12.59 11.78 12.43 11.85 12.27 11.85C11.94 11.85 11.66 11.57 11.66 11.24C11.66 11.07 11.73 10.92 11.84 10.81L13.91 8.74C14.52 8.13 15.44 7.89 16.26 8.14L21.06 9.58L23.86 15.18L23.08 15.97ZM25.49 16.01L22.2 9.42L24.6 8.47L27.91 14.8L25.49 16.01ZM31.77 17.53L30.88 18.12L25.62 8.08L31.77 5.66L31.77 17.53Z" fill="#E3B873" fill-opacity="1.000000" fill-rule="nonzero"/>
	<circle id="Ellipse" cx="18.666744" cy="0.701416" r="0.485591" fill="#E3B873" fill-opacity="1.000000"/>
	<circle id="Ellipse" cx="6.409908" cy="23.630615" r="0.485591" fill="#E3B873" fill-opacity="1.000000"/>
	<circle id="Ellipse" cx="8.468014" cy="25.319092" r="0.485591" fill="#E3B873" fill-opacity="1.000000"/>
	<circle id="Ellipse" cx="10.816647" cy="26.557861" r="0.485591" fill="#E3B873" fill-opacity="1.000000"/>
	<circle id="Ellipse" cx="13.365475" cy="27.350342" r="0.485591" fill="#E3B873" fill-opacity="1.000000"/>
	<circle id="Ellipse" cx="21.214108" cy="1.474365" r="0.485591" fill="#E3B873" fill-opacity="1.000000"/>
	<circle id="Ellipse" cx="23.563229" cy="2.728760" r="0.485591" fill="#E3B873" fill-opacity="1.000000"/>
	<path id="Vector" d="M25.83 2.02L25.83 4.82L22.99 4.82" stroke="#E3B873" stroke-opacity="1.000000" stroke-width="1.000000" stroke-linejoin="round" stroke-linecap="round"/>
	<path id="Vector" d="M4.01 23.31L4.01 21.04L6.27 21.04" stroke="#E3B873" stroke-opacity="1.000000" stroke-width="1.000000" stroke-linejoin="round" stroke-linecap="round"/>
	<path id="Vector 2.2" d="M6.8 4C8.33 2.67 9.31 2.05 11.15 1.34C13.1 0.57 14.42 0.4 16.54 0.4" stroke="#E3B873" stroke-opacity="1.000000" stroke-width="1.000000" stroke-linecap="round"/>
	<path id="Vector 2.3" d="M27.4 21.49C26.26 23.27 24.13 25.01 22.4 25.97C20.57 26.98 18.61 27.55 15.99 27.69" stroke="#E3B873" stroke-opacity="1.000000" stroke-width="1.000000" stroke-linecap="round"/>
</svg>
