<svg width="13.000000" height="14.000000" viewBox="0 0 13 14" fill="none" xmlns="http://www.w3.org/2000/svg" xmlns:xlink="http://www.w3.org/1999/xlink">
	<desc>
			Created with Pixso.
	</desc>
	<defs/>
	<path id="Vector" d="M9 0.72C10.65 0.72 12 2.06 12 3.72L12 9.72C12 11.37 10.65 12.72 9 12.72L3 12.72C1.34 12.72 0 11.37 0 9.72L0 3.72C0 2.06 1.34 0.72 3 0.72L9 0.72Z" stroke="#FFFFFF" stroke-opacity="1.000000" stroke-width="1.500000"/>
	<path id="Vector" d="M8.15 7.8C7.92 8.24 7.55 8.61 7.1 8.83C6.65 9.06 6.14 9.14 5.64 9.06C5.14 8.98 4.68 8.74 4.32 8.39C3.97 8.03 3.73 7.57 3.65 7.07C3.57 6.57 3.65 6.06 3.88 5.61C4.1 5.16 4.47 4.79 4.92 4.56C5.36 4.33 5.87 4.24 6.37 4.32C6.88 4.39 7.35 4.63 7.72 4.99C8.08 5.36 8.32 5.83 8.4 6.34C8.47 6.84 8.38 7.35 8.15 7.8Z" stroke="#FFFFFF" stroke-opacity="1.000000" stroke-width="1.500000" stroke-linejoin="round"/>
</svg>
