<svg width="27.000000" height="28.000000" viewBox="0 0 27 28" fill="none" xmlns="http://www.w3.org/2000/svg" xmlns:xlink="http://www.w3.org/1999/xlink">
	<desc>
			Created with Pixso.
	</desc>
	<defs/>
	<path d="M25.4 21.14C24.82 20.73 24.15 20.51 23.47 20.47C20.91 18.8 19.24 17.54 18.26 16.57L15.26 13.57L17.08 11.53C17.43 11.72 17.8 11.85 18.17 11.9C18.45 11.95 18.64 11.95 18.82 11.95C19.2 11.95 19.29 11.95 19.66 12.28C19.48 12.42 19.38 12.65 19.38 12.88C19.38 13.12 19.48 13.4 19.66 13.58L21.3 15.21C21.53 15.49 21.9 15.63 22.27 15.63C22.65 15.63 23.02 15.49 23.25 15.17L26.57 11.86C26.85 11.62 26.99 11.25 26.99 10.88C26.99 10.5 26.85 10.18 26.57 9.9L24.93 8.26C24.75 8.08 24.51 7.98 24.28 7.98C24.05 7.98 23.81 8.12 23.63 8.26C23.25 7.94 23.25 7.85 23.25 7.47C23.25 7.29 23.25 7.05 23.16 6.77C23.07 6.12 22.74 5.47 22.23 4.95L20.55 3.27C19.57 2.29 19.1 1.83 17.84 1.27C15.14 0.01 12.39 0.24 8.38 2.06C8.14 2.15 8.05 2.34 8.1 2.57C8.14 2.81 8.33 2.95 8.56 2.95L9.17 2.95C11.22 2.95 12.29 2.95 14.16 4.81C14.98 5.63 15 6.88 14.27 7.8C14.17 7.82 14.09 7.86 14.02 7.94L11.95 10.25L10.38 8.68C8.66 6.96 7.45 5.33 6.52 3.52C6.47 2.6 6.1 1.74 5.44 1.08C4.64 0.29 3.52 -0.08 2.4 0.01C2.26 0.06 2.12 0.15 2.08 0.24C1.99 0.38 1.99 0.57 2.08 0.71L3.38 3.04C3.1 3.65 2.45 4.02 1.8 3.97L0.45 1.73C0.4 1.59 0.21 1.5 0.07 1.5C-0.07 1.45 -0.21 1.55 -0.3 1.69C-1.42 3.37 -1 5.61 0.68 6.77C1.26 7.19 1.91 7.42 2.57 7.46C2.58 7.47 2.58 7.47 2.59 7.47C4.41 8.4 6.04 9.62 7.77 11.34L9.47 13.01L-0.44 24.08C-0.81 24.45 -1 24.96 -1 25.48C-1 25.99 -0.81 26.46 -0.44 26.83L0.21 27.48C0.59 27.81 1.05 28 1.52 28C1.99 28 2.5 27.81 2.87 27.44L12.78 16.35L15.65 19.23C16.63 20.2 17.89 21.93 19.56 24.44C19.62 25.34 19.99 26.18 20.64 26.83C21.34 27.53 22.27 27.9 23.25 27.9C23.39 27.9 23.53 27.9 23.63 27.9C23.77 27.9 23.91 27.81 24 27.67C24.09 27.53 24.09 27.34 24 27.2L22.65 24.92C22.97 24.31 23.58 23.94 24.28 23.98L25.59 26.22C25.63 26.36 25.82 26.46 25.96 26.46C26.15 26.41 26.29 26.36 26.38 26.22C27.5 24.54 27.03 22.3 25.4 21.14ZM14.77 4.07C13.27 2.62 12.15 2.15 10.89 2.01C13.55 1.18 15.51 1.22 17.47 2.11C18.59 2.57 18.96 2.95 19.94 3.93L21.62 5.61C22 5.98 22.23 6.45 22.27 6.91C22.32 7.15 22.32 7.33 22.32 7.47C22.32 7.98 22.37 8.36 22.93 8.92C23.11 9.1 23.39 9.2 23.63 9.2C23.91 9.2 24.14 9.1 24.28 8.92L25.91 10.55C26.01 10.64 26.05 10.74 26.05 10.88C26.05 11.02 26.01 11.11 25.91 11.2L22.6 14.52C22.41 14.7 22.14 14.7 21.95 14.52L20.32 12.88C20.5 12.74 20.6 12.51 20.55 12.23C20.55 12 20.46 11.72 20.27 11.53C19.71 10.97 19.34 10.92 18.82 10.92C18.68 10.92 18.5 10.92 18.26 10.88C17.75 10.83 17.33 10.6 16.96 10.22L14.95 8.22C15.98 6.96 15.88 5.19 14.77 4.07ZM0.12 2.95L1.1 4.63C1.19 4.77 1.33 4.86 1.47 4.86L1.71 4.86C2.78 4.91 3.76 4.35 4.22 3.41L4.32 3.18C4.41 3.04 4.41 2.9 4.32 2.76L3.29 0.99C3.85 1.08 4.36 1.36 4.78 1.78C5.26 2.3 5.57 2.96 5.59 3.67C5.58 3.7 5.58 3.74 5.58 3.79C5.58 4 5.55 4.21 5.5 4.42C5.33 5.09 4.9 5.68 4.32 6.07C3.38 6.68 2.12 6.68 1.19 6.03C0.21 5.33 -0.21 4.07 0.12 2.95ZM8.42 10.69C7.02 9.24 5.62 8.12 4.13 7.24C4.36 7.15 4.64 7.01 4.88 6.87C5.58 6.4 6.04 5.79 6.32 5.05C7.21 6.54 8.33 7.94 9.73 9.34L11.33 10.94L10.07 12.34L8.42 10.69ZM2.22 26.74C1.85 27.11 1.24 27.16 0.87 26.78L0.21 26.18C0.03 25.99 -0.07 25.76 -0.07 25.52C-0.07 25.24 0.03 25.01 0.26 24.78L0.52 24.48L1.19 25.15C1.29 25.24 1.38 25.29 1.52 25.29C1.66 25.29 1.75 25.24 1.85 25.15C2.03 24.96 2.03 24.68 1.85 24.5L1.14 23.79L1.76 23.1L2.5 23.84C2.59 23.94 2.68 23.98 2.82 23.98C2.96 23.98 3.06 23.94 3.15 23.84C3.34 23.66 3.34 23.38 3.15 23.19L2.37 22.41L14.37 8.99L16.33 10.95L14.4 13.1C14.35 13.12 14.3 13.16 14.25 13.21L12.39 15.31C12.33 15.36 12.3 15.42 12.27 15.49L2.22 26.74ZM13.41 15.64L14.69 14.21L17.7 17.22C18.54 18.11 19.99 19.23 22.09 20.63C21.81 20.72 21.53 20.86 21.25 21.05C20.67 21.41 20.26 21.91 19.97 22.46C19.97 22.47 19.97 22.48 19.96 22.49C19.95 22.52 19.93 22.56 19.91 22.59C19.89 22.64 19.87 22.68 19.85 22.73C19.83 22.77 19.82 22.8 19.8 22.83C19.8 22.84 19.8 22.84 19.8 22.85C19.78 22.88 19.77 22.92 19.76 22.96C19.49 22.57 19.24 22.2 18.99 21.86L19.62 21.23C19.8 21.05 19.8 20.77 19.62 20.58C19.43 20.39 19.15 20.39 18.96 20.58L18.44 21.1C18.25 20.84 18.06 20.59 17.88 20.35L18.31 19.93C18.5 19.74 18.5 19.46 18.31 19.27C18.12 19.09 17.84 19.09 17.66 19.27L17.3 19.63C16.96 19.22 16.64 18.86 16.35 18.57L13.41 15.64ZM25.91 24.96L24.93 23.28C24.84 23.14 24.7 23.05 24.56 23.05L24.33 23.05C23.25 22.96 22.27 23.56 21.81 24.5L21.72 24.73C21.62 24.87 21.62 25.01 21.72 25.15L22.74 26.92C22.18 26.83 21.67 26.55 21.25 26.13C20.78 25.62 20.47 24.97 20.44 24.28C20.45 24.25 20.46 24.21 20.46 24.17C20.46 23.58 20.64 23.03 20.97 22.56C21.17 22.28 21.42 22.03 21.72 21.84C22.18 21.51 22.69 21.37 23.25 21.37C23.81 21.37 24.37 21.56 24.84 21.88C25.82 22.58 26.24 23.84 25.91 24.96Z" fill="#E3B873" fill-opacity="1.000000" fill-rule="nonzero"/>
</svg>
